<mxfile host="app.diagrams.net" agent="Mozilla/5.0 (Macintosh; Intel Mac OS X 10_15_7) AppleWebKit/537.36 (KHTML, like Gecko) Chrome/127.0.0.0 Safari/537.36" version="24.7.17">
  <diagram name="Page-1" id="GMOOKL5oZxSMztqM5X71">
    <mxGraphModel dx="954" dy="529" grid="1" gridSize="10" guides="1" tooltips="1" connect="1" arrows="1" fold="1" page="1" pageScale="1" pageWidth="850" pageHeight="1100" math="0" shadow="0">
      <root>
        <mxCell id="0" />
        <mxCell id="1" parent="0" />
        <mxCell id="OCfXWy8ihKs6CbOgox06-1" value="" style="whiteSpace=wrap;html=1;aspect=fixed;" vertex="1" parent="1">
          <mxGeometry x="180" y="120" width="420" height="420" as="geometry" />
        </mxCell>
        <mxCell id="OCfXWy8ihKs6CbOgox06-2" value="&lt;p style=&quot;line-height: 100%;&quot;&gt;&lt;font color=&quot;#ff66b3&quot;&gt;&lt;span style=&quot;font-size: 15px;&quot;&gt;Cluster&lt;/span&gt;&lt;/font&gt;&lt;/p&gt;" style="rounded=1;whiteSpace=wrap;html=1;labelPosition=center;verticalLabelPosition=bottom;align=center;verticalAlign=top;" vertex="1" parent="1">
          <mxGeometry x="297.5" y="140" width="132.5" height="280" as="geometry" />
        </mxCell>
        <mxCell id="OCfXWy8ihKs6CbOgox06-4" value="&lt;font color=&quot;#b894ff&quot;&gt;Broker 1&lt;/font&gt;" style="rounded=0;whiteSpace=wrap;html=1;align=center;verticalAlign=top;" vertex="1" parent="1">
          <mxGeometry x="310" y="150" width="100" height="120" as="geometry" />
        </mxCell>
        <mxCell id="OCfXWy8ihKs6CbOgox06-5" value="&lt;div style=&quot;&quot;&gt;&lt;span style=&quot;color: rgb(175, 94, 255); background-color: initial;&quot;&gt;Broker 2&lt;/span&gt;&lt;/div&gt;" style="rounded=0;whiteSpace=wrap;html=1;align=center;labelPosition=center;verticalLabelPosition=top;verticalAlign=bottom;" vertex="1" parent="1">
          <mxGeometry x="310" y="290" width="100" height="90" as="geometry" />
        </mxCell>
        <mxCell id="OCfXWy8ihKs6CbOgox06-6" value="Topic 1" style="rounded=1;whiteSpace=wrap;html=1;" vertex="1" parent="1">
          <mxGeometry x="320" y="170" width="80" height="20" as="geometry" />
        </mxCell>
        <mxCell id="OCfXWy8ihKs6CbOgox06-7" value="Topic 2" style="rounded=1;whiteSpace=wrap;html=1;" vertex="1" parent="1">
          <mxGeometry x="320" y="200" width="80" height="20" as="geometry" />
        </mxCell>
        <mxCell id="OCfXWy8ihKs6CbOgox06-8" value="Topic 3" style="rounded=1;whiteSpace=wrap;html=1;" vertex="1" parent="1">
          <mxGeometry x="320" y="230" width="80" height="20" as="geometry" />
        </mxCell>
        <mxCell id="OCfXWy8ihKs6CbOgox06-10" value="Topic 4" style="rounded=1;whiteSpace=wrap;html=1;" vertex="1" parent="1">
          <mxGeometry x="320" y="300" width="80" height="20" as="geometry" />
        </mxCell>
        <mxCell id="OCfXWy8ihKs6CbOgox06-11" value="Topic 5" style="rounded=1;whiteSpace=wrap;html=1;align=center;" vertex="1" parent="1">
          <mxGeometry x="320" y="340" width="80" height="20" as="geometry" />
        </mxCell>
        <mxCell id="OCfXWy8ihKs6CbOgox06-22" value="ZooKeeper" style="rounded=1;whiteSpace=wrap;html=1;" vertex="1" parent="1">
          <mxGeometry x="230" y="470" width="320" height="60" as="geometry" />
        </mxCell>
        <mxCell id="OCfXWy8ihKs6CbOgox06-23" value="Producer 1" style="rounded=0;whiteSpace=wrap;html=1;" vertex="1" parent="1">
          <mxGeometry x="30" y="140" width="120" height="60" as="geometry" />
        </mxCell>
        <mxCell id="OCfXWy8ihKs6CbOgox06-24" value="Producer 2" style="rounded=0;whiteSpace=wrap;html=1;" vertex="1" parent="1">
          <mxGeometry x="30" y="250" width="120" height="60" as="geometry" />
        </mxCell>
        <mxCell id="OCfXWy8ihKs6CbOgox06-25" value="Producer 3" style="rounded=0;whiteSpace=wrap;html=1;" vertex="1" parent="1">
          <mxGeometry x="30" y="360" width="120" height="60" as="geometry" />
        </mxCell>
        <mxCell id="OCfXWy8ihKs6CbOgox06-26" value="Consumer 3" style="rounded=0;whiteSpace=wrap;html=1;" vertex="1" parent="1">
          <mxGeometry x="660" y="360" width="120" height="60" as="geometry" />
        </mxCell>
        <mxCell id="OCfXWy8ihKs6CbOgox06-27" value="Consumer 2" style="rounded=0;whiteSpace=wrap;html=1;" vertex="1" parent="1">
          <mxGeometry x="660" y="250" width="120" height="60" as="geometry" />
        </mxCell>
        <mxCell id="OCfXWy8ihKs6CbOgox06-28" value="Consumer 1" style="rounded=0;whiteSpace=wrap;html=1;" vertex="1" parent="1">
          <mxGeometry x="660" y="140" width="120" height="70" as="geometry" />
        </mxCell>
        <mxCell id="OCfXWy8ihKs6CbOgox06-29" value="" style="endArrow=classic;html=1;rounded=0;entryX=0;entryY=0.25;entryDx=0;entryDy=0;" edge="1" parent="1" target="OCfXWy8ihKs6CbOgox06-27">
          <mxGeometry width="50" height="50" relative="1" as="geometry">
            <mxPoint x="400" y="310.0011111111111" as="sourcePoint" />
            <mxPoint x="650" y="271.8066666666666" as="targetPoint" />
          </mxGeometry>
        </mxCell>
        <mxCell id="OCfXWy8ihKs6CbOgox06-31" value="" style="endArrow=classic;html=1;rounded=0;exitX=1;exitY=0.5;exitDx=0;exitDy=0;" edge="1" parent="1" source="OCfXWy8ihKs6CbOgox06-11">
          <mxGeometry width="50" height="50" relative="1" as="geometry">
            <mxPoint x="430" y="310" as="sourcePoint" />
            <mxPoint x="650" y="390" as="targetPoint" />
          </mxGeometry>
        </mxCell>
        <mxCell id="OCfXWy8ihKs6CbOgox06-32" value="" style="endArrow=classic;html=1;rounded=0;exitX=1;exitY=1;exitDx=0;exitDy=0;entryX=0;entryY=0.414;entryDx=0;entryDy=0;entryPerimeter=0;" edge="1" parent="1" source="OCfXWy8ihKs6CbOgox06-8" target="OCfXWy8ihKs6CbOgox06-28">
          <mxGeometry width="50" height="50" relative="1" as="geometry">
            <mxPoint x="430" y="310" as="sourcePoint" />
            <mxPoint x="480" y="260" as="targetPoint" />
          </mxGeometry>
        </mxCell>
        <mxCell id="OCfXWy8ihKs6CbOgox06-33" value="" style="endArrow=classic;html=1;rounded=0;exitX=1;exitY=0.75;exitDx=0;exitDy=0;entryX=0.1;entryY=0.333;entryDx=0;entryDy=0;entryPerimeter=0;" edge="1" parent="1" source="OCfXWy8ihKs6CbOgox06-23" target="OCfXWy8ihKs6CbOgox06-5">
          <mxGeometry width="50" height="50" relative="1" as="geometry">
            <mxPoint x="430" y="310" as="sourcePoint" />
            <mxPoint x="480" y="260" as="targetPoint" />
          </mxGeometry>
        </mxCell>
        <mxCell id="OCfXWy8ihKs6CbOgox06-34" value="" style="endArrow=classic;html=1;rounded=0;exitX=1;exitY=0.5;exitDx=0;exitDy=0;entryX=0;entryY=0.5;entryDx=0;entryDy=0;" edge="1" parent="1" source="OCfXWy8ihKs6CbOgox06-24" target="OCfXWy8ihKs6CbOgox06-6">
          <mxGeometry width="50" height="50" relative="1" as="geometry">
            <mxPoint x="430" y="310" as="sourcePoint" />
            <mxPoint x="480" y="260" as="targetPoint" />
          </mxGeometry>
        </mxCell>
        <mxCell id="OCfXWy8ihKs6CbOgox06-35" value="" style="endArrow=classic;html=1;rounded=0;exitX=1;exitY=0.5;exitDx=0;exitDy=0;entryX=0;entryY=0.75;entryDx=0;entryDy=0;" edge="1" parent="1" source="OCfXWy8ihKs6CbOgox06-25" target="OCfXWy8ihKs6CbOgox06-11">
          <mxGeometry width="50" height="50" relative="1" as="geometry">
            <mxPoint x="430" y="310" as="sourcePoint" />
            <mxPoint x="480" y="260" as="targetPoint" />
          </mxGeometry>
        </mxCell>
      </root>
    </mxGraphModel>
  </diagram>
</mxfile>
